<svg xmlns="http://www.w3.org/2000/svg" xmlns:xlink="http://www.w3.org/1999/xlink" width="500" zoomAndPan="magnify" viewBox="0 0 375 149.999998" height="200" preserveAspectRatio="xMidYMid meet" version="1.0"><defs><filter x="0%" y="0%" width="100%" height="100%" id="de5de6db43"><feColorMatrix values="0 0 0 0 1 0 0 0 0 1 0 0 0 0 1 0 0 0 1 0" color-interpolation-filters="sRGB"/></filter><g/><mask id="b9ecfd4ed2"><g filter="url(#de5de6db43)"><rect x="-37.5" width="450" fill="#000000" y="-15" height="179.999997" fill-opacity="0.5"/></g></mask><clipPath id="d614f3b42f"><path d="M 0 1 L 100.902344 1 L 100.902344 116.800781 L 0 116.800781 Z M 0 1 " clip-rule="nonzero"/></clipPath><clipPath id="32ee934596"><rect x="0" width="193" y="0" height="117"/></clipPath><clipPath id="5414f4ff91"><path d="M 100.878906 9 L 201.757812 9 L 201.757812 124.960938 L 100.878906 124.960938 Z M 100.878906 9 " clip-rule="nonzero"/></clipPath></defs><g mask="url(#b9ecfd4ed2)"><g transform="matrix(1, 0, 0, 1, 0, 8)"><g clip-path="url(#32ee934596)"><g clip-path="url(#d614f3b42f)"><path fill="#0d2f3f" d="M 44.644531 40.824219 L 20.988281 116.523438 L 39.261719 116.523438 L 52.933594 73.09375 L 54.222656 69.03125 Z M 41.453125 31.425781 L 32.523438 5.128906 L 27.6875 19.835938 L -0.0078125 116.523438 L 14.859375 116.523438 Z M 140.933594 17.945312 L 110.128906 116.523438 L 126.050781 116.523438 L 139.601562 73.480469 L 140.886719 77.542969 L 153.164062 116.523438 L 170.605469 116.523438 Z M 56.65625 1.054688 L 39.921875 1.054688 C 39.734375 1.054688 39.609375 1.234375 39.539062 1.386719 C 39.414062 1.636719 39.339844 2.058594 39.480469 2.492188 L 43.660156 15.210938 L 76.953125 116.523438 L 91.410156 116.523438 Z M 97.519531 116.523438 L 104 116.523438 L 137.925781 7.957031 L 135.847656 1.054688 L 124.550781 1.054688 C 124.378906 1.054688 124.203125 1.238281 124.109375 1.527344 L 101.519531 70.269531 L 78.925781 1.523438 C 78.832031 1.238281 78.660156 1.054688 78.484375 1.054688 L 62.761719 1.054688 Z M 146.214844 1.054688 L 154.042969 1.054688 C 154.21875 1.054688 154.390625 1.238281 154.484375 1.527344 L 159.382812 16.421875 L 192.277344 116.523438 L 176.714844 116.523438 L 144.042969 7.988281 L 146.214844 1.054688 " fill-opacity="1" fill-rule="nonzero"/></g></g></g></g><g clip-path="url(#5414f4ff91)"><path fill="#0d2f3f" d="M 157.113281 48.824219 L 180.769531 124.523438 L 162.496094 124.523438 L 148.824219 81.09375 L 147.535156 77.03125 Z M 160.304688 39.425781 L 169.234375 13.128906 L 174.070312 27.835938 L 201.769531 124.523438 L 186.898438 124.523438 Z M 60.824219 25.945312 L 91.628906 124.523438 L 75.707031 124.523438 L 62.15625 81.480469 L 60.871094 85.542969 L 48.59375 124.523438 L 31.152344 124.523438 Z M 145.105469 9.054688 L 161.835938 9.054688 C 162.027344 9.054688 162.152344 9.234375 162.222656 9.386719 C 162.34375 9.636719 162.417969 10.058594 162.277344 10.492188 L 158.097656 23.210938 L 124.804688 124.523438 L 110.347656 124.523438 Z M 104.238281 124.523438 L 97.757812 124.523438 L 63.832031 15.957031 L 65.910156 9.054688 L 77.207031 9.054688 C 77.378906 9.054688 77.554688 9.238281 77.648438 9.527344 L 100.238281 78.269531 L 122.832031 9.523438 C 122.925781 9.238281 123.101562 9.054688 123.277344 9.054688 L 138.996094 9.054688 Z M 55.546875 9.054688 L 47.714844 9.054688 C 47.539062 9.054688 47.367188 9.238281 47.273438 9.527344 L 42.375 24.421875 L 9.480469 124.523438 L 25.042969 124.523438 L 57.714844 15.988281 L 55.546875 9.054688 " fill-opacity="1" fill-rule="nonzero"/></g><g fill="#0d2f3f" fill-opacity="1"><g transform="translate(203.10616, 124.889862)"><g><path d="M 2.734375 -4.5 L 9.203125 -23.25 L 6.671875 -23.484375 L 6.671875 -26.75 L 15.890625 -26.75 L 24.09375 -3.546875 L 24.125 -3.546875 L 26.421875 -3.421875 L 26.421875 0 L 16.046875 0 L 16.046875 -3.25 L 17.578125 -3.375 C 18.035156 -3.425781 18.34375 -3.53125 18.5 -3.6875 C 18.65625 -3.851562 18.671875 -4.148438 18.546875 -4.578125 L 17.703125 -7.078125 L 8.28125 -7.078125 L 7.078125 -3.546875 L 9.484375 -3.421875 L 9.484375 0 L 0.203125 0 L 0.203125 -3.25 L 1.53125 -3.375 C 2.09375 -3.425781 2.492188 -3.800781 2.734375 -4.5 Z M 12.984375 -22.234375 L 9.25 -10.78125 L 16.734375 -10.78125 L 13.109375 -22.234375 Z M 12.984375 -22.234375 "/></g></g></g><g fill="#0d2f3f" fill-opacity="1"><g transform="translate(230.856307, 124.889862)"><g><path d="M 1.28125 0 L 1.28125 -3.25 L 2.609375 -3.375 C 3.390625 -3.457031 3.78125 -3.832031 3.78125 -4.5 L 3.78125 -23.203125 L 1.484375 -23.328125 L 1.484375 -26.75 L 12.46875 -26.75 C 15.582031 -26.75 17.96875 -26.171875 19.625 -25.015625 C 21.289062 -23.859375 22.125 -21.96875 22.125 -19.34375 C 22.125 -17.519531 21.644531 -16.019531 20.6875 -14.84375 C 19.738281 -13.664062 18.609375 -12.804688 17.296875 -12.265625 C 18.253906 -11.921875 19.019531 -11.101562 19.59375 -9.8125 L 22.484375 -3.5 L 24.78125 -3.421875 L 24.78125 0 L 14.84375 0 L 14.84375 -3.25 L 16 -3.375 C 16.625 -3.457031 16.9375 -3.703125 16.9375 -4.109375 C 16.9375 -4.265625 16.878906 -4.453125 16.765625 -4.671875 L 14.875 -8.6875 C 14.582031 -9.351562 14.253906 -9.828125 13.890625 -10.109375 C 13.535156 -10.390625 13.019531 -10.53125 12.34375 -10.53125 L 8.6875 -10.53125 L 8.6875 -3.546875 L 11.296875 -3.421875 L 11.296875 0 Z M 8.6875 -14.359375 L 12.1875 -14.359375 C 15.488281 -14.359375 17.140625 -15.832031 17.140625 -18.78125 C 17.140625 -20.46875 16.703125 -21.566406 15.828125 -22.078125 C 14.953125 -22.585938 13.550781 -22.84375 11.625 -22.84375 L 8.6875 -22.84375 Z M 8.6875 -14.359375 "/></g></g></g><g fill="#0d2f3f" fill-opacity="1"><g transform="translate(257.158633, 124.889862)"><g><path d="M 3.78125 -4.703125 L 3.78125 -23.203125 L 1.484375 -23.328125 L 1.484375 -26.75 L 11.21875 -26.75 L 11.21875 -23.484375 L 9.890625 -23.359375 C 9.117188 -23.285156 8.734375 -22.859375 8.734375 -22.078125 L 8.734375 -3.546875 L 11.015625 -3.421875 L 11.015625 0 L 1.28125 0 L 1.28125 -3.25 L 2.609375 -3.375 C 3.015625 -3.425781 3.3125 -3.539062 3.5 -3.71875 C 3.6875 -3.894531 3.78125 -4.222656 3.78125 -4.703125 Z M 3.78125 -4.703125 "/></g></g></g><g fill="#0d2f3f" fill-opacity="1"><g transform="translate(270.631689, 124.889862)"><g><path d="M 20.46875 0 L 1.375 0 L 1.375 -3.25 L 2.6875 -3.375 C 3.46875 -3.457031 3.859375 -3.832031 3.859375 -4.5 L 3.859375 -23.203125 L 1.5625 -23.328125 L 1.5625 -26.75 L 19.984375 -26.75 L 19.984375 -20.0625 L 15.890625 -19.78125 L 15.890625 -21.390625 C 15.890625 -21.847656 15.820312 -22.171875 15.6875 -22.359375 C 15.550781 -22.546875 15.226562 -22.640625 14.71875 -22.640625 L 8.765625 -22.640625 L 8.765625 -15.765625 L 18.0625 -15.765625 L 18.0625 -11.65625 L 8.765625 -11.65625 L 8.765625 -4.140625 L 15.25 -4.140625 C 15.726562 -4.140625 16.035156 -4.238281 16.171875 -4.4375 C 16.304688 -4.644531 16.375 -4.972656 16.375 -5.421875 L 16.375 -7.4375 L 20.46875 -7.15625 Z M 20.46875 0 "/></g></g></g><g fill="#0d2f3f" fill-opacity="1"><g transform="translate(293.837294, 124.889862)"><g><path d="M 20.390625 0 L 1.28125 0 L 1.28125 -3.25 L 2.609375 -3.375 C 3.390625 -3.457031 3.78125 -3.832031 3.78125 -4.5 L 3.78125 -23.203125 L 1.484375 -23.328125 L 1.484375 -26.75 L 11.1875 -26.75 L 11.1875 -23.484375 L 9.859375 -23.359375 C 9.078125 -23.285156 8.6875 -22.859375 8.6875 -22.078125 L 8.6875 -4.140625 L 15.359375 -4.140625 C 15.734375 -4.140625 15.976562 -4.238281 16.09375 -4.4375 C 16.21875 -4.644531 16.28125 -4.972656 16.28125 -5.421875 L 16.28125 -8.25 L 20.390625 -7.96875 Z M 20.390625 0 "/></g></g></g><g fill="#0d2f3f" fill-opacity="1"><g transform="translate(316.56029, 124.889862)"><g><path d="M 2.734375 -4.5 L 9.203125 -23.25 L 6.671875 -23.484375 L 6.671875 -26.75 L 15.890625 -26.75 L 24.09375 -3.546875 L 24.125 -3.546875 L 26.421875 -3.421875 L 26.421875 0 L 16.046875 0 L 16.046875 -3.25 L 17.578125 -3.375 C 18.035156 -3.425781 18.34375 -3.53125 18.5 -3.6875 C 18.65625 -3.851562 18.671875 -4.148438 18.546875 -4.578125 L 17.703125 -7.078125 L 8.28125 -7.078125 L 7.078125 -3.546875 L 9.484375 -3.421875 L 9.484375 0 L 0.203125 0 L 0.203125 -3.25 L 1.53125 -3.375 C 2.09375 -3.425781 2.492188 -3.800781 2.734375 -4.5 Z M 12.984375 -22.234375 L 9.25 -10.78125 L 16.734375 -10.78125 L 13.109375 -22.234375 Z M 12.984375 -22.234375 "/></g></g></g></svg>